<?xml version="1.0" encoding="UTF-8"?>
<svg width="60px" height="17px" viewBox="0 0 85 24" version="1.1" xmlns="http://www.w3.org/2000/svg" xmlns:xlink="http://www.w3.org/1999/xlink">
     <title>clutch</title>
    <desc>Created with sketchtool.</desc>
    <g  stroke="none" stroke-width="1" fill="none" fill-rule="evenodd">
        <g  transform="translate(-150.000000, -590.000000)">
            <g >
                <g  transform="translate(150.000000, 590.000000)">
                    <g >
                        <rect  fill="#17313B" x="21.94656" y="0" width="3.84" height="24"></rect>
                        <path d="M39.22656,16.344 C39.22656,20.01696 36.13824,20.30976 35.21952,20.30976 C32.92416,20.30976 32.50656,18.16128 32.50656,16.86528 L32.50656,7.68 L28.66656,7.68 L28.66656,16.84608 C28.66656,19.12128 29.3808,20.99904 30.63264,22.25088 C31.73856,23.35776 33.39552,23.96256 35.19072,23.96256 C36.46368,23.96256 38.26656,23.56608 39.22656,22.6896 L39.22656,24 L43.06656,24 L43.06656,7.68 L39.22656,7.68 L39.22656,16.344 Z"  fill="#17313B"></path>
                        <polygon  fill="#17313B" points="50.74656 1.92 46.90656 1.92 46.90656 7.68 44.02656 7.68 44.02656 11.52 46.90656 11.52 46.90656 24 50.74656 24 50.74656 11.52 53.62656 11.52 53.62656 7.68 50.74656 7.68"></polygon>
                        <path d="M65.71968,19.12032 C64.88352,19.872 63.77952,20.28864 62.568,20.28864 C59.89728,20.28864 57.936,18.32736 57.936,15.63456 C57.936,12.94176 59.83488,11.06304 62.568,11.06304 C63.7584,11.06304 64.88352,11.45952 65.7408,12.2112 L66.32352,12.71232 L68.91264,10.12416 L68.26464,9.53952 C66.74112,8.16384 64.7184,7.392 62.56704,7.392 C57.76704,7.392 54.28128,10.85568 54.28128,15.6144 C54.28128,20.35296 57.85056,23.94048 62.56704,23.94048 C64.75872,23.94048 66.80256,23.16864 68.30688,21.77088 L68.9328,21.18624 L66.30336,18.6 L65.71968,19.12032 Z"  fill="#17313B"></path>
                        <path d="M82.61856,9.10272 C81.51264,7.9968 80.21664,7.392 78.42144,7.392 C77.14848,7.392 75.70656,7.78848 74.74656,8.664 L74.74656,0 L70.90656,0 L70.90656,24 L74.74656,24 L74.74656,15.0096 C74.74656,11.33664 77.35584,11.0448 78.27456,11.0448 C80.56992,11.0448 80.50656,13.19424 80.50656,14.48832 L80.50656,24 L84.34656,24 L84.34656,14.50848 C84.34656,12.23328 83.87136,10.35552 82.61856,9.10272"  fill="#17313B"></path>
                        <path d="M62.44128,12.90048 C63.97536,12.90048 65.21856,14.14176 65.21856,15.6768 C65.21856,17.20992 63.97536,18.45312 62.44128,18.45312 C60.90816,18.45312 59.66592,17.20992 59.66592,15.6768 C59.66688,14.14272 60.90912,12.90048 62.44128,12.90048"  fill="#FF3D2E"></path>
                        <path d="M16.57056,17.97216 C15.1104,19.47456 13.12704,20.28864 11.04,20.28864 C6.76224,20.28864 3.65184,16.92864 3.65184,12.3168 C3.65184,7.68384 6.76224,4.32384 11.04,4.32384 C13.10688,4.32384 15.06816,5.13696 16.5504,6.6192 L17.13408,7.20384 L19.70112,4.6368 L19.1376,4.05216 C17.00928,1.86048 14.12928,0.672 11.04,0.672 C4.7376,0.672 0,5.68032 0,12.33696 C0,18.97344 4.75872,23.9616 11.04,23.9616 C14.1504,23.9616 17.0304,22.752 19.15872,20.56032 L19.72224,19.97568 L17.17632,17.36736 L16.57056,17.97216 Z"  fill="#17313B"></path>
                    </g>
                </g>
            </g>
        </g>
    </g>
</svg>
